<?xml version="1.0" encoding="iso-8859-1"?>
<!-- Generator: Adobe Illustrator 20.1.0, SVG Export Plug-In . SVG Version: 6.00 Build 0)  -->
<svg version="1.1"  xmlns="http://www.w3.org/2000/svg" xmlns:xlink="http://www.w3.org/1999/xlink" x="0px" y="0px"
	 viewBox="0 0 50 50" style="enable-background:new 0 0 50 50;" xml:space="preserve">
<rect x="41" y="28" transform="matrix(-1 -9.004010e-11 9.004010e-11 -1 88 73)" style="fill:none;stroke:#000000;stroke-width:2;stroke-linecap:round;stroke-linejoin:round;stroke-miterlimit:10;" width="6" height="17"/>
<path style="fill:none;stroke:#000000;stroke-width:2;stroke-linecap:round;stroke-linejoin:round;stroke-miterlimit:10;" d="
	M34.374,27.982L31,22L28.254,6.437c-0.122-0.689-0.631-1.286-1.32-1.41C25.899,4.842,25,5.631,25,6.631V24l1.979,11.217
	C27.57,38.562,30.476,41,33.873,41H41V29h-4.884C35.394,29,34.728,28.611,34.374,27.982z"/>
<rect x="3" y="28" style="fill:none;stroke:#000000;stroke-width:2;stroke-linecap:round;stroke-linejoin:round;stroke-miterlimit:10;" width="6" height="17"/>
<path style="fill:none;stroke:#000000;stroke-width:2;stroke-linecap:round;stroke-linejoin:round;stroke-miterlimit:10;" d="
	M15.626,27.982L19,22l2.746-15.563c0.122-0.689,0.631-1.286,1.32-1.41C24.101,4.842,25,5.631,25,6.631V24l-1.979,11.217
	C22.43,38.562,19.524,41,16.127,41H14h-3H9V29h4.884C14.606,29,15.272,28.611,15.626,27.982z"/>
</svg>
