<?xml version="1.0" encoding="utf-8"?>
<!-- Generator: Adobe Illustrator 17.1.0, SVG Export Plug-In . SVG Version: 6.00 Build 0)  -->
<!DOCTYPE svg PUBLIC "-//W3C//DTD SVG 1.1//EN" "http://www.w3.org/Graphics/SVG/1.1/DTD/svg11.dtd">
<svg xmlns="http://www.w3.org/2000/svg" id="svg-icon-1" viewBox="0 0 50 50" width="50" height="50" style="fill: rgb(232, 118, 56);">
    <path style="line-height:normal;text-indent:0;text-align:start;text-decoration-line:none;text-decoration-style:solid;text-decoration-color:#000;text-transform:none;block-progression:tb;isolation:auto;mix-blend-mode:normal" d="M 23.488281 4.0058594 C 23.292618 3.9954814 23.092941 4.0068059 22.890625 4.0429688 A 1.0001 1.0001 0 0 0 22.888672 4.0429688 C 21.733491 4.2508678 20.949687 5.2001587 20.761719 6.2617188 A 1.0001 1.0001 0 0 0 20.761719 6.2636719 L 18.044922 21.658203 L 14.755859 27.490234 A 1.0001 1.0001 0 0 0 14.753906 27.492188 C 14.57645 27.807539 14.247578 28 13.884766 28 L 10 28 A 1.0001 1.0001 0 0 0 9 27 L 3 27 A 1.0001 1.0001 0 0 0 2 28 L 2 45 A 1.0001 1.0001 0 0 0 3 46 L 9 46 A 1.0001 1.0001 0 0 0 10 45 L 10 42 L 11 42 L 14 42 L 16.126953 42 C 20.002415 42 23.331626 39.206718 24.005859 35.390625 L 25 29.753906 L 25.994141 35.390625 C 26.668369 39.206718 29.997585 42 33.873047 42 L 40 42 L 40 45 A 1.0001 1.0001 0 0 0 41 46 L 47 46 A 1.0001 1.0001 0 0 0 48 45 L 48 28 A 1.0001 1.0001 0 0 0 47 27 L 41 27 A 1.0001 1.0001 0 0 0 40 28 L 36.115234 28 C 35.752422 28 35.423597 27.807582 35.246094 27.492188 A 1.0001 1.0001 0 0 0 35.244141 27.490234 L 31.955078 21.658203 L 29.238281 6.2636719 A 1.0001 1.0001 0 0 0 29.238281 6.2617188 C 29.050313 5.2001587 28.266509 4.2508678 27.111328 4.0429688 A 1.0001 1.0001 0 0 0 27.109375 4.0429688 C 26.322847 3.9023817 25.56979 4.1371206 25 4.59375 C 24.576776 4.254578 24.053283 4.0358271 23.488281 4.0058594 z M 23.242188 6.0117188 C 23.693658 5.9310212 24 6.2301927 24 6.6308594 L 24 23.912109 L 22.037109 35.042969 C 21.529343 37.916875 19.045492 40 16.126953 40 L 14 40 L 11 40 L 10 40 L 10 30 L 13.884766 30 C 14.965953 30 15.96755 29.415262 16.498047 28.472656 L 16.496094 28.472656 L 19.871094 22.492188 A 1.0001 1.0001 0 0 0 19.984375 22.173828 L 22.730469 6.6113281 C 22.786499 6.2948881 23.019369 6.0518196 23.242188 6.0117188 z M 26.757812 6.0117188 C 26.980632 6.0518197 27.2135 6.2948881 27.269531 6.6113281 L 30.015625 22.173828 A 1.0001 1.0001 0 0 0 30.128906 22.492188 L 33.503906 28.472656 L 33.501953 28.472656 C 34.032497 29.415262 35.034047 30 36.115234 30 L 40 30 L 40 40 L 33.873047 40 C 30.954508 40 28.470657 37.916875 27.962891 35.042969 L 26 23.912109 L 26 6.6308594 C 26 6.2301927 26.306342 5.9310212 26.757812 6.0117188 z M 4 29 L 8 29 L 8 41 L 8 44 L 4 44 L 4 29 z M 42 29 L 46 29 L 46 44 L 42 44 L 42 41 L 42 29 z" color="#000" font-weight="400" font-family="sans-serif" white-space="normal" overflow="visible" class="xpkXeGSh_0"></path>
<style>.xpkXeGSh_0{stroke-dasharray:435 437;stroke-dashoffset:436;animation:xpkXeGSh_draw 200ms ease 0ms forwards;}@keyframes xpkXeGSh_draw{100%{stroke-dashoffset:0;}}@keyframes xpkXeGSh_fade{0%{stroke-opacity:1;}90.9090909090909%{stroke-opacity:1;}100%{stroke-opacity:0;}}</style></svg>
